<?xml version="1.0" standalone="no"?>
<!DOCTYPE svg PUBLIC "-//W3C//DTD SVG 20010904//EN"
 "http://www.w3.org/TR/2001/REC-SVG-20010904/DTD/svg10.dtd">
<svg version="1.0" xmlns="http://www.w3.org/2000/svg"
 width="200.000000pt" height="200.000000pt" viewBox="0 0 200.000000 200.000000"
 preserveAspectRatio="xMidYMid meet">
<metadata>
Created by potrace 1.15, written by Peter Selinger 2001-2017
</metadata>
<g transform="translate(0.000000,200.000000) scale(0.100000,-0.100000)"
fill="#000000" stroke="none">
<path d="M845 1945 c-34 -7 -91 -27 -129 -44 -399 -181 -552 -652 -334 -1026
57 -97 183 -220 276 -268 71 -38 110 -79 126 -134 6 -20 2 -22 -46 -28 -29 -3
-62 -5 -73 -4 -41 4 -65 -1 -82 -20 -10 -11 -29 -21 -43 -23 l-25 -3 0 -150 0
-150 30 -3 c16 -2 32 -7 35 -12 3 -4 19 -15 37 -24 28 -14 79 -16 406 -16
l374 0 37 25 c20 14 50 25 66 25 l30 0 0 155 0 155 -31 0 c-20 0 -37 8 -49 22
-16 20 -29 23 -104 27 -95 3 -99 7 -70 64 28 54 50 76 126 125 143 94 260 259
305 432 23 87 22 253 0 340 -23 89 -86 213 -144 285 -98 121 -251 216 -400
249 -86 19 -234 20 -318 1z m343 -26 c189 -50 352 -180 437 -349 37 -74 65
-162 64 -199 -1 -25 -1 -25 -9 4 -14 51 -39 111 -40 95 0 -9 7 -42 15 -73 20
-79 19 -97 -5 -97 -11 0 -20 4 -20 10 0 5 -7 7 -15 4 -22 -9 -18 -22 6 -26 52
-8 77 -98 27 -98 -17 0 -18 3 -8 15 18 21 5 47 -22 43 -18 -2 -23 -9 -21 -31
1 -15 -3 -27 -10 -27 -7 0 -8 -3 -1 -10 6 -6 27 -11 48 -12 l37 -1 -6 -41 c-9
-53 -14 -58 -55 -46 -43 12 -50 12 -50 1 0 -5 20 -15 44 -22 50 -15 51 -32 2
-54 -28 -12 -29 -13 -8 -14 13 -1 22 -6 20 -12 -4 -13 -8 -13 -60 10 l-43 19
28 11 c16 6 35 11 43 11 8 0 12 5 9 10 -3 6 -18 10 -32 10 -19 0 -24 4 -19 16
3 9 9 34 12 57 4 23 10 49 14 57 5 8 4 22 0 31 -6 10 -4 26 6 44 12 23 12 29
0 39 -7 6 -16 28 -19 49 -5 34 -4 37 16 32 13 -4 34 -2 47 4 20 8 21 10 6 10
-15 1 -16 4 -6 16 16 19 9 19 -37 0 -19 -8 -37 -15 -38 -15 -1 0 -5 14 -9 31
-5 25 -8 28 -20 17 -8 -7 -11 -17 -8 -23 4 -5 8 -21 9 -35 1 -14 -8 2 -20 35
-93 246 -357 391 -607 334 -146 -33 -285 -143 -352 -279 -21 -41 -38 -68 -38
-59 0 9 -7 22 -15 29 -12 10 -15 7 -21 -15 -4 -17 -11 -24 -20 -21 -8 3 -14 1
-14 -4 0 -6 5 -10 10 -10 6 0 10 -9 10 -20 0 -11 -4 -20 -8 -20 -5 0 -7 -13
-4 -29 3 -21 -2 -33 -22 -49 -46 -36 -91 -7 -84 53 2 19 -1 36 -7 38 -15 5 19
126 57 202 64 130 166 232 299 300 162 83 331 101 507 54z m-147 -229 c29 -16
26 -68 -6 -80 -39 -15 -55 -3 -55 39 0 52 17 64 61 41z m-114 -17 c14 -17 14
-17 9 0 -7 22 19 23 28 1 8 -21 8 -74 -1 -74 -3 0 -15 8 -25 17 -16 14 -18 15
-13 1 7 -18 -32 -32 -59 -22 -11 4 -16 1 -16 -10 0 -9 -6 -16 -14 -16 -7 0
-19 -7 -26 -15 -16 -19 -54 -19 -70 -1 -15 20 -9 56 12 70 24 15 34 0 14 -23
-14 -16 -15 -20 -2 -30 12 -10 14 -9 9 7 -7 27 15 38 32 16 13 -17 14 -15 15
22 0 22 3 44 7 48 4 3 22 -8 41 -26 l33 -33 -6 27 c-7 28 -1 58 11 58 4 0 13
-8 21 -17z m177 9 c8 -13 -13 -82 -24 -82 -11 0 -13 34 -4 68 6 22 19 29 28
14z m74 -46 c-2 -13 -12 -22 -25 -24 -13 -2 -23 -8 -23 -13 0 -5 -7 -9 -15 -9
-19 0 -19 8 0 54 14 33 17 35 40 24 18 -8 25 -18 23 -32z m56 -2 c9 -3 16 -13
16 -21 0 -9 -6 -13 -14 -10 -10 4 -12 0 -9 -14 4 -13 1 -18 -8 -16 -8 2 -11 2
-6 0 4 -3 7 -11 7 -19 0 -12 -5 -12 -31 1 -28 15 -29 18 -17 38 8 12 18 28 22
35 8 13 17 15 40 6z m63 -46 c27 -25 30 -43 7 -34 -11 4 -22 -1 -31 -14 -14
-20 -43 -28 -43 -12 0 5 9 17 19 26 11 10 17 25 14 37 -7 25 5 24 34 -3z
m-180 -49 c66 -24 162 -113 181 -167 15 -44 -4 -51 -22 -8 -25 60 -101 133
-165 157 -114 43 -230 13 -317 -83 l-39 -43 90 -7 c50 -4 111 -13 137 -19 52
-12 133 -61 148 -89 7 -14 27 -20 75 -25 60 -7 64 -9 54 -27 -6 -10 -8 -24 -6
-31 2 -7 -8 -35 -24 -63 -15 -28 -29 -59 -31 -70 -4 -15 -6 -13 -12 11 -4 17
-16 49 -26 72 -11 24 -17 49 -14 58 4 10 0 15 -13 15 -11 0 -28 7 -39 15 -21
16 -68 18 -202 9 l-92 -7 0 -36 c0 -22 14 -62 35 -101 19 -35 34 -73 34 -85
-1 -17 -2 -18 -6 -2 -3 10 -25 39 -49 64 -24 26 -46 60 -49 77 -11 58 -12 88
-5 121 6 29 4 34 -21 49 -16 10 -29 22 -29 27 0 40 82 138 142 170 79 43 179
49 265 18z m-27 -114 c0 -8 -4 -15 -9 -15 -13 0 -22 16 -14 24 11 11 23 6 23
-9z m-472 -57 c34 -34 -6 -90 -48 -68 -35 19 -20 80 20 80 9 0 21 -5 28 -12z
m836 -4 c9 -8 16 -20 16 -26 0 -15 -30 -48 -43 -48 -15 0 -47 31 -47 46 0 17
28 44 45 44 7 0 21 -7 29 -16z m73 -46 c-3 -7 -5 -2 -5 12 0 14 2 19 5 13 2
-7 2 -19 0 -25z m170 -10 c-3 -7 -5 -2 -5 12 0 14 2 19 5 13 2 -7 2 -19 0 -25z
m-632 -86 c-68 -9 -245 -16 -245 -10 0 12 39 18 145 21 91 2 149 -4 100 -11z
m-635 -28 c0 -14 -4 -23 -10 -19 -5 3 -10 -1 -10 -9 0 -9 7 -16 15 -16 8 0 15
-6 15 -12 0 -7 3 -23 6 -34 4 -16 0 -23 -18 -29 -22 -8 -22 -8 6 -12 l28 -5
-23 -24 c-22 -24 -14 -35 9 -12 10 10 15 10 22 -2 7 -11 -1 -17 -38 -27 -62
-16 -62 -16 -62 6 0 10 10 26 23 34 l22 16 -27 0 c-16 1 -31 9 -38 20 -12 24
-13 34 -1 27 5 -3 26 0 47 8 l39 14 -27 11 c-16 6 -40 16 -54 21 l-27 11 44
29 c55 36 59 36 59 4z m430 -74 c0 -8 -9 0 -20 18 -11 18 -17 38 -13 45 7 12
32 -35 33 -63z m264 53 c8 -20 -10 -33 -49 -33 -16 0 -66 -3 -110 -6 -80 -7
-81 -6 -93 20 -7 15 -12 29 -12 31 0 3 58 5 129 5 111 0 130 -2 135 -17z
m-474 -22 c0 -5 -7 -12 -16 -15 -8 -3 -12 -10 -9 -16 4 -6 10 -8 15 -5 15 9
31 -30 18 -43 -9 -9 -8 -12 4 -12 19 0 48 -42 48 -69 0 -12 5 -19 13 -16 6 2
28 -9 47 -25 l34 -30 -18 -31 c-24 -40 -14 -48 13 -10 30 41 54 32 45 -18 -8
-45 -13 -50 -25 -28 -7 11 -17 16 -28 12 -21 -6 -46 19 -36 36 5 8 1 9 -14 4
-12 -4 -21 -2 -21 4 0 6 -6 11 -13 11 -7 0 -18 5 -25 12 -9 9 -8 16 6 31 16
19 16 19 -5 13 -16 -5 -28 -1 -44 15 l-21 21 28 25 29 24 -37 -6 c-42 -6 -49
3 -18 23 30 18 24 32 -10 26 -31 -7 -43 9 -14 20 8 3 13 10 9 15 -3 6 -12 8
-20 4 -8 -3 -15 0 -15 6 0 13 35 29 63 30 9 1 17 -3 17 -8z m500 -30 c0 -10
-166 -20 -195 -12 -11 3 14 9 55 12 126 9 140 9 140 0z m226 -17 c-5 -14 -4
-15 9 -4 21 17 47 5 43 -22 -2 -12 -9 -23 -17 -26 -9 -3 -11 2 -6 17 6 20 5
21 -14 9 -15 -9 -23 -10 -32 -1 -13 13 -5 43 12 43 6 0 8 -7 5 -16z m3 -65
c27 -37 18 -55 -11 -20 -15 20 -21 22 -28 11 -5 -9 -1 -19 13 -30 13 -11 18
-23 14 -33 -8 -23 -40 -21 -61 2 -16 17 -15 21 10 60 15 22 30 41 34 41 3 0
16 -14 29 -31z m-389 -14 c0 -8 7 -15 15 -15 16 0 21 -15 7 -23 -4 -3 -31 0
-60 5 -37 8 -52 15 -52 27 0 12 11 17 45 19 35 2 45 -1 45 -13z m160 -5 c0 -5
-9 -6 -20 -3 -13 3 -22 -1 -26 -11 -6 -15 -8 -15 -20 1 -20 27 -18 29 26 25
22 -2 40 -8 40 -12z m-70 -37 c0 -3 -6 -3 -14 0 -7 3 -20 0 -27 -6 -11 -10
-11 -9 0 5 11 15 41 15 41 1z m-613 -56 c-30 -15 -37 -21 -24 -24 17 -4 15
-23 -3 -23 -7 0 -50 64 -50 75 0 1 7 6 16 9 12 4 15 2 10 -9 -8 -21 14 -18 44
5 23 18 26 18 37 3 11 -14 7 -19 -30 -36z m1103 33 c11 -11 20 -26 20 -33 0
-23 -31 -57 -52 -57 -27 0 -58 28 -58 52 0 22 34 58 55 58 8 0 24 -9 35 -20z
m-274 -21 c14 -15 16 -24 7 -37 -5 -9 -16 -17 -24 -17 -8 0 -17 -8 -22 -19 -5
-13 -14 -17 -32 -14 -16 3 -25 1 -25 -7 0 -17 -29 -40 -38 -30 -4 4 -1 10 6
12 19 7 14 23 -8 23 -13 0 -20 7 -20 20 0 11 2 20 4 20 2 0 13 3 23 7 16 6 16
5 4 -10 -12 -15 -11 -17 6 -17 14 0 19 7 19 23 -1 15 5 23 20 25 12 2 24 12
27 23 7 25 29 24 53 -2z m-761 -55 c0 -24 4 -28 23 -26 12 2 22 -1 22 -5 0 -8
-101 -34 -108 -28 -7 7 44 94 53 91 6 -1 10 -16 10 -32z m988 -65 c-8 -8 -19
-4 -40 15 -33 31 -43 33 -43 6 0 -22 -15 -27 -26 -9 -3 6 6 23 20 38 l27 28
36 -34 c27 -24 34 -36 26 -44z m-611 30 c-4 -41 -11 -51 -34 -47 -19 2 -23 9
-21 32 4 49 10 57 35 47 16 -6 22 -16 20 -32z m62 -22 c10 -41 0 -62 -16 -34
-8 14 -13 16 -24 6 -23 -19 -26 -4 -7 35 20 44 35 42 47 -7z m84 4 c5 -29 -15
-51 -44 -51 -21 0 -24 5 -24 39 0 23 5 41 13 44 22 8 52 -10 55 -32z m-453 -2
c4 -5 0 -18 -9 -28 -21 -23 -8 -36 15 -15 16 14 20 14 47 -6 24 -18 29 -29 27
-57 -2 -30 -17 -52 -36 -53 -3 0 -4 23 -1 50 5 58 -6 64 -38 20 -18 -25 -25
-29 -36 -19 -11 9 -12 15 -3 26 16 19 3 29 -16 13 -10 -9 -19 -10 -26 -3 -6 6
2 22 23 46 35 39 43 43 53 26z m515 1 c0 -5 -7 -10 -16 -10 -8 0 -12 5 -9 10
3 6 10 10 16 10 5 0 9 -4 9 -10z m308 -26 c26 -18 29 -56 6 -78 -48 -48 -113
25 -67 76 20 22 32 23 61 2z m-83 -74 c23 -25 13 -63 -20 -78 -34 -15 -45 -15
-45 1 0 8 10 13 22 13 26 -1 36 27 18 49 -19 22 -40 18 -37 -6 3 -27 -18 -36
-27 -13 -8 22 21 54 49 54 12 0 30 -9 40 -20z m-597 -6 c27 -13 30 -19 22 -34
-17 -31 -11 -35 15 -10 l25 23 1 -39 1 -39 10 33 c11 33 22 40 33 22 3 -5 2
-10 -3 -10 -5 0 -15 -18 -22 -40 -7 -22 -16 -40 -20 -40 -13 0 -30 25 -30 44
0 18 -1 18 -20 1 -10 -9 -26 -15 -35 -11 -14 5 -14 9 0 35 25 49 17 79 -13 49
-17 -17 -27 -2 -11 16 8 8 14 15 15 16 0 0 15 -7 32 -16z m466 -29 c-4 -9 6
-26 25 -44 26 -24 28 -30 14 -35 -9 -4 -24 1 -34 10 -18 16 -19 16 -19 -9 0
-15 -5 -27 -11 -27 -8 0 -10 13 -6 37 4 21 2 42 -4 50 -10 11 3 22 38 32 1 1
0 -6 -3 -14z m-170 -51 c20 -20 20 -38 0 -59 -20 -20 -42 -16 -60 10 -12 18
-11 24 2 43 18 26 37 28 58 6z m-74 -165 c0 -17 -4 -28 -10 -24 -5 3 -10 17
-10 31 0 13 5 24 10 24 6 0 10 -14 10 -31z m130 16 c0 -6 -7 -20 -16 -31 -15
-19 -15 -18 -11 4 3 12 1 22 -4 22 -5 0 -9 -6 -9 -14 0 -8 -7 -16 -15 -20 -9
-3 -15 0 -15 10 0 13 -2 13 -17 -1 -16 -16 -17 -16 -25 5 -4 12 -6 25 -4 29 8
12 116 9 116 -4z m410 -169 l0 -54 -92 -6 c-51 -4 -154 -8 -229 -9 -118 -2
-135 -4 -132 -18 6 -23 -18 -38 -49 -32 -21 4 -28 11 -28 29 0 23 -3 24 -72
24 -40 0 -130 7 -201 16 -72 8 -138 14 -148 11 -19 -5 -29 17 -29 66 l0 27
490 0 490 0 0 -54z m-509 -155 c1 -14 2 -13 6 2 2 9 11 17 19 17 8 0 15 -8 15
-17 1 -17 2 -17 6 0 2 9 14 17 26 18 12 0 35 2 50 3 38 2 51 -8 53 -42 1 -28
0 -29 -52 -31 -45 -1 -54 1 -55 16 -1 17 -2 17 -6 1 -5 -20 -33 -24 -34 -5 0
10 -2 10 -6 0 -7 -19 -33 -16 -33 5 -1 16 -1 16 -11 0 -13 -22 -55 -23 -67 -2
-8 14 -10 14 -25 0 -23 -23 -27 -20 -27 19 0 34 1 36 35 33 19 -1 37 0 40 3
11 12 65 -4 66 -20z"/>
<path d="M470 1616 c0 -2 7 -7 16 -10 8 -3 12 -2 9 4 -6 10 -25 14 -25 6z"/>
<path d="M1504 1574 c-18 -14 -18 -15 4 -4 12 6 22 13 22 15 0 8 -5 6 -26 -11z"/>
<path d="M470 1566 c0 -2 8 -10 18 -17 15 -13 16 -12 3 4 -13 16 -21 21 -21
13z"/>
<path d="M468 1503 c6 -2 18 -2 25 0 6 3 1 5 -13 5 -14 0 -19 -2 -12 -5z"/>
<path d="M430 1496 c0 -2 7 -7 16 -10 8 -3 12 -2 9 4 -6 10 -25 14 -25 6z"/>
<path d="M390 1486 c0 -2 7 -7 16 -10 8 -3 12 -2 9 4 -6 10 -25 14 -25 6z"/>
<path d="M1575 1454 l-30 -14 30 6 c31 6 41 11 34 18 -2 2 -17 -2 -34 -10z"/>
<path d="M385 1450 c-27 -7 -27 -8 -5 -8 14 0 36 4 50 8 20 6 21 8 5 8 -11 0
-33 -4 -50 -8z"/>
<path d="M340 1428 c0 -7 -3 -23 -6 -35 -5 -18 -1 -23 20 -29 29 -7 34 -19 11
-28 -24 -9 -17 -33 10 -40 28 -7 45 -1 45 15 0 6 -9 8 -20 4 -16 -5 -19 -2
-17 24 2 26 5 30 22 25 14 -5 9 6 -20 35 -43 45 -45 46 -45 29z"/>
<path d="M1585 1329 c-4 -6 -5 -12 -2 -15 2 -3 7 2 10 11 7 17 1 20 -8 4z"/>
<path d="M1570 1130 c0 -5 7 -10 15 -10 8 0 15 5 15 10 0 6 -7 10 -15 10 -8 0
-15 -4 -15 -10z"/>
<path d="M1620 1120 c0 -5 7 -10 15 -10 8 0 15 5 15 10 0 6 -7 10 -15 10 -8 0
-15 -4 -15 -10z"/>
<path d="M1010 1650 c0 -11 5 -20 10 -20 6 0 10 9 10 20 0 11 -4 20 -10 20 -5
0 -10 -9 -10 -20z"/>
<path d="M661 1001 c-7 -5 -11 -14 -7 -19 9 -15 36 -4 36 14 0 16 -9 18 -29 5z"/>
<path d="M720 952 c0 -7 5 -12 11 -12 5 0 7 -5 4 -10 -5 -8 -11 -7 -21 1 -8 7
-14 7 -14 1 0 -5 6 -15 14 -21 10 -9 16 -8 26 4 11 13 10 19 -3 33 -11 10 -17
12 -17 4z"/>
<path d="M765 910 c3 -5 8 -10 11 -10 2 0 4 5 4 10 0 6 -5 10 -11 10 -5 0 -7
-4 -4 -10z"/>
<path d="M1310 991 c0 -5 7 -12 16 -15 24 -9 28 -7 14 9 -14 17 -30 20 -30 6z"/>
<path d="M1502 933 c4 -22 49 -46 62 -33 13 13 -22 50 -46 50 -13 0 -18 -6
-16 -17z"/>
<path d="M1260 932 c0 -5 7 -15 15 -22 8 -7 15 -8 15 -2 0 5 -7 15 -15 22 -8
7 -15 8 -15 2z"/>
<path d="M1210 898 c0 -9 5 -20 11 -23 17 -11 20 0 4 21 -13 17 -14 17 -15 2z"/>
<path d="M1010 825 c0 -17 5 -25 13 -22 6 2 12 12 12 22 0 10 -6 20 -12 23 -8
2 -13 -6 -13 -23z"/>
<path d="M1370 777 c0 -8 9 -22 20 -32 27 -24 47 -8 31 24 -13 23 -51 29 -51
8z"/>
<path d="M935 161 c-6 -11 9 -23 19 -14 9 9 7 23 -3 23 -6 0 -12 -4 -16 -9z"/>
</g>
</svg>
