<?xml version="1.0" standalone="no"?>
<!DOCTYPE svg PUBLIC "-//W3C//DTD SVG 20010904//EN"
 "http://www.w3.org/TR/2001/REC-SVG-20010904/DTD/svg10.dtd">
<svg version="1.0" xmlns="http://www.w3.org/2000/svg"
 width="200.000000pt" height="200.000000pt" viewBox="0 0 200.000000 200.000000"
 preserveAspectRatio="xMidYMid meet">
<metadata>
Created by potrace 1.15, written by Peter Selinger 2001-2017
</metadata>
<g transform="translate(0.000000,200.000000) scale(0.100000,-0.100000)"
fill="#000000" stroke="none">
<path d="M850 1976 c-345 -64 -590 -340 -607 -687 -7 -135 13 -231 72 -354 71
-146 177 -257 317 -331 52 -27 74 -45 93 -78 42 -72 39 -76 -70 -76 -84 0 -96
-2 -107 -20 -9 -13 -24 -20 -46 -20 l-33 0 3 -157 3 -158 33 -3 c17 -2 32 -8
32 -13 0 -6 16 -17 35 -25 52 -22 783 -21 825 1 17 9 30 20 30 25 0 6 18 10
40 10 l40 0 0 160 0 160 -40 0 c-28 0 -40 4 -40 15 0 19 -61 35 -138 35 l-62
0 15 37 c25 60 47 85 127 140 154 107 270 270 315 443 22 86 22 253 0 343 -92
374 -466 620 -837 553z m119 -63 c0 -11 -3 -13 -6 -5 -11 29 -25 9 -21 -33 2
-35 0 -45 -12 -45 -11 0 -15 12 -16 50 0 48 1 50 28 50 20 0 28 -5 27 -17z
m49 -36 c2 -37 0 -47 -12 -47 -12 0 -16 12 -16 51 0 66 24 62 28 -4z m-158 33
c0 -5 -5 -10 -11 -10 -5 0 -7 5 -4 10 3 6 8 10 11 10 2 0 4 -4 4 -10z m40 6
c0 -3 -4 -8 -10 -11 -5 -3 -10 -1 -10 4 0 6 5 11 10 11 6 0 10 -2 10 -4z m208
-2 c12 -4 22 -11 22 -16 0 -5 -5 -6 -11 -2 -15 9 -29 -14 -29 -48 0 -18 -5
-28 -15 -28 -17 0 -18 2 -6 52 7 30 6 38 -8 41 -12 4 -11 5 4 6 11 0 30 -2 43
-5z m-257 -41 c31 -12 38 -42 11 -51 -7 -2 -10 2 -6 11 3 10 -3 17 -19 21 -27
6 -41 31 -30 49 5 8 8 7 11 -3 1 -9 16 -21 33 -27z m-71 23 c0 -3 -4 -8 -10
-11 -5 -3 -10 -1 -10 4 0 6 5 11 10 11 6 0 10 -2 10 -4z m396 -21 c-3 -14 -9
-36 -12 -50 -9 -35 21 -33 40 3 18 32 21 24 4 -13 -13 -28 -39 -33 -58 -10
-10 12 -10 24 -1 55 13 44 37 57 27 15z m-404 -13 c3 7 10 -2 16 -20 13 -37 8
-39 -35 -13 -23 14 -33 16 -37 8 -2 -7 -5 -4 -5 6 -1 9 -7 17 -13 17 -9 0 -9
3 1 9 10 6 25 5 42 -5 21 -10 28 -11 31 -2z m498 -12 c0 -5 -4 -10 -10 -10 -5
0 -10 5 -10 10 0 6 5 10 10 10 6 0 10 -4 10 -10z m-583 -40 c13 -24 17 -42 11
-46 -5 -3 -10 -4 -12 -3 -19 26 -43 79 -39 83 12 11 18 6 40 -34z m643 1 c0
-12 -2 -12 -13 3 -12 16 -15 15 -32 -18 -29 -54 -50 -47 -23 8 19 41 23 43 45
33 12 -5 23 -17 23 -26z m-500 8 c0 -6 -4 -7 -10 -4 -5 3 -10 11 -10 16 0 6 5
7 10 4 6 -3 10 -11 10 -16z m-90 -31 c0 -19 -16 -5 -17 14 -2 18 0 20 7 8 5
-8 10 -18 10 -22z m-127 -30 c30 -44 9 -53 -23 -11 -20 28 -25 41 -17 51 9 12
12 12 17 0 3 -7 13 -25 23 -40z m777 22 c14 -10 21 -22 17 -27 -5 -4 -13 0
-19 10 -8 15 -12 16 -24 6 -12 -10 -12 -14 -2 -20 10 -7 10 -11 0 -21 -9 -9
-12 -9 -12 2 0 11 -2 12 -12 1 -11 -10 -9 -15 6 -27 11 -8 16 -14 10 -14 -5 1
-20 9 -33 20 l-23 20 28 34 c16 19 31 35 34 35 3 0 16 -8 30 -19z m-826 -49
c16 -16 25 -34 21 -41 -5 -8 -11 -6 -20 7 -11 15 -16 16 -27 5 -11 -11 -10
-16 4 -26 12 -9 14 -16 7 -23 -14 -14 -74 51 -64 67 5 7 12 5 20 -7 11 -15 16
-16 27 -5 11 11 10 16 -4 26 -10 7 -15 16 -11 19 11 12 18 8 47 -22z m526 18
c181 -41 341 -205 379 -387 48 -231 -64 -461 -273 -562 -145 -70 -298 -71
-443 -1 -181 87 -284 250 -286 451 0 94 26 192 71 265 63 104 188 198 302 229
65 17 186 20 250 5z m400 -69 c11 -11 20 -26 20 -34 0 -23 -29 -46 -58 -46
l-27 0 33 20 c30 19 45 60 21 60 -21 0 -50 -22 -59 -43 -8 -20 -9 -19 -9 10
-1 50 43 69 79 33z m-999 -29 c23 -19 23 -19 6 -56 l-17 -36 -30 24 c-16 14
-35 27 -42 30 -9 3 -6 12 11 31 29 31 41 32 72 7z m1079 -98 c0 -7 -4 -13 -10
-13 -5 0 -7 6 -4 14 7 18 -15 31 -29 17 -8 -8 -7 -11 3 -11 11 0 11 -3 2 -12
-10 -10 -15 -10 -22 1 -7 12 -11 12 -23 2 -12 -9 -17 -9 -23 0 -4 7 -3 14 2
16 5 2 23 12 39 22 30 18 30 18 47 -3 10 -11 18 -27 18 -33z m-1170 22 c11
-13 10 -14 -4 -9 -9 3 -16 10 -16 15 0 13 6 11 20 -6z m49 -24 c17 -11 6 -17
-43 -26 -26 -5 -34 -10 -24 -16 15 -10 7 -12 -16 -3 -37 14 -10 36 64 53 3 0
11 -3 19 -8z m1161 -86 c6 -19 9 -41 7 -48 -3 -7 -6 -4 -6 7 -1 18 -11 18 -73
0 -12 -4 -18 0 -18 10 0 9 7 16 15 16 8 0 25 5 39 12 20 9 23 14 15 25 -8 8
-8 13 -1 13 6 0 16 -16 22 -35z m-1170 21 c0 -3 -4 -8 -10 -11 -5 -3 -10 -1
-10 4 0 6 5 11 10 11 6 0 10 -2 10 -4z m-20 -41 c0 -15 -14 -19 -55 -16 -17 1
-16 -1 8 -20 15 -11 27 -24 27 -29 0 -5 -18 8 -41 28 l-41 37 33 6 c57 11 69
10 69 -6z m1214 -77 c8 -33 7 -48 -3 -48 -5 0 -7 9 -4 20 4 15 0 20 -16 20
-11 0 -20 -5 -18 -11 1 -6 -4 -14 -11 -16 -8 -3 -10 1 -6 11 5 12 2 15 -11 10
-10 -4 -15 -14 -12 -25 3 -11 1 -19 -4 -19 -5 0 -9 15 -9 34 0 32 3 35 33 39
17 2 37 5 43 5 7 1 14 -8 18 -20z m-1318 -14 c-19 -19 -20 -26 -4 -42 18 -18
59 -15 74 6 12 15 12 15 7 -6 -11 -45 -71 -53 -93 -12 -13 25 -2 70 17 70 12
0 12 -2 -1 -16z m74 -5 c0 -5 -9 -9 -20 -9 -19 0 -26 11 -14 23 8 8 34 -3 34
-14z m1244 -82 c15 -23 12 -67 -6 -67 -5 0 -3 10 3 22 10 18 8 24 -7 35 -32
23 -59 13 -67 -27 -4 -22 -4 -22 -6 6 0 16 4 35 11 42 19 19 56 14 72 -11z
m-1244 -62 c0 -8 -11 -17 -25 -21 -34 -8 -31 -19 8 -32 17 -5 25 -10 17 -11
-8 0 -33 7 -54 17 l-40 18 35 21 c41 26 59 28 59 8z m1250 -47 c0 -4 -11 -8
-25 -8 -16 0 -25 -6 -25 -15 0 -8 9 -15 20 -15 12 0 20 -7 20 -16 0 -12 -6
-15 -22 -10 -13 3 -35 6 -50 6 -19 0 -28 5 -28 16 0 12 7 15 25 12 19 -4 25
-1 25 13 0 12 -7 19 -20 19 -19 0 -26 11 -15 22 8 8 95 -14 95 -24z m-1274
-75 c-53 -16 -56 -16 -56 2 0 8 8 15 18 15 9 0 28 6 42 13 21 11 26 11 31 -2
5 -12 -4 -19 -35 -28z m1194 -13 c18 -12 2 -12 -25 0 -13 6 -15 9 -5 9 8 0 22
-4 30 -9z m-1150 -9 c0 -5 -7 -14 -15 -21 -11 -9 -13 -15 -5 -20 8 -5 6 -9 -5
-13 -9 -4 -13 -3 -10 3 3 6 2 10 -3 10 -6 0 -13 -8 -16 -17 -6 -15 -8 -15 -16
-3 -6 10 -3 21 11 36 20 21 20 22 2 27 -10 3 -1 5 20 6 20 0 37 -3 37 -8z
m1197 -17 c6 -17 -74 -47 -94 -36 -14 8 -10 12 25 23 23 7 42 16 42 21 0 12
23 5 27 -8z m-1177 -14 c0 -5 -5 -10 -11 -10 -5 0 -7 5 -4 10 3 6 8 10 11 10
2 0 4 -4 4 -10z m1160 -40 c0 -5 -7 -7 -15 -4 -8 4 -15 8 -15 10 0 2 7 4 15 4
8 0 15 -4 15 -10z m-1130 -20 c0 -6 -16 -18 -35 -27 -34 -16 -46 -33 -24 -33
5 0 7 -5 3 -11 -4 -8 -14 1 -25 22 -19 35 -26 65 -9 39 8 -12 13 -12 42 2 39
20 48 21 48 8z m1088 -2 c7 -7 12 -23 12 -36 l0 -25 -21 27 c-24 31 -73 37
-67 9 2 -10 18 -25 36 -34 26 -13 29 -18 16 -23 -41 -16 -83 51 -52 82 15 15
61 15 76 0z m-1054 -75 c1 -20 6 -28 18 -27 10 1 15 -2 12 -7 -7 -12 -34 -11
-34 1 0 6 -5 10 -11 10 -6 0 -9 -7 -5 -15 4 -10 -1 -15 -14 -15 -25 0 -25 4 2
51 24 43 30 43 32 2z m990 -31 c24 -18 26 -23 12 -28 -11 -4 -26 2 -41 16 -27
26 -58 21 -48 -7 5 -15 3 -16 -7 -6 -11 11 -10 17 10 38 14 15 28 21 34 17 6
-5 24 -18 40 -30z m-931 -48 c-14 -10 -15 -15 -6 -25 10 -10 16 -9 31 4 32 30
33 6 0 -35 -21 -27 -34 -36 -41 -29 -7 7 -6 15 2 25 19 23 3 41 -19 21 -30
-27 -31 0 -2 38 20 26 30 32 40 25 10 -8 8 -13 -5 -24z m855 -6 c7 -7 12 -23
12 -37 0 -25 0 -25 -28 9 -17 20 -33 30 -40 26 -19 -12 -14 -33 13 -54 31 -25
32 -34 3 -30 -12 2 -29 15 -37 30 -14 24 -14 28 3 47 21 23 56 27 74 9z m-763
-54 c0 -15 6 -19 30 -17 28 2 29 1 11 -12 -16 -12 -22 -12 -35 -2 -12 10 -14
9 -8 -5 5 -16 -18 -46 -28 -36 -10 10 8 99 19 95 6 -2 11 -12 11 -23z m665
-14 c24 -24 25 -40 4 -66 -13 -16 -15 -17 -10 -1 8 26 -14 67 -37 67 -14 0
-18 -5 -14 -20 6 -24 -12 -38 -24 -19 -13 22 -11 27 19 43 35 20 38 20 62 -4z
m-585 -57 c-14 -33 -14 -35 2 -22 11 7 9 3 -3 -10 -32 -35 -44 -19 -26 33 10
27 21 42 29 39 10 -4 9 -12 -2 -40z m455 14 c0 -8 11 -24 25 -37 14 -13 25
-27 25 -32 0 -13 -20 -9 -37 8 -12 11 -18 12 -23 4 -4 -7 -9 3 -12 24 -2 20
-2 39 1 41 9 10 21 5 21 -8z m-391 -48 c1 8 3 12 6 9 9 -9 -18 -59 -29 -55
-16 5 -25 74 -12 87 8 8 14 1 23 -22 6 -18 12 -27 12 -19z m31 37 c0 -3 -4 -8
-10 -11 -5 -3 -10 -1 -10 4 0 6 5 11 10 11 6 0 10 -2 10 -4z m455 -26 c3 -5 2
-10 -4 -10 -5 0 -13 5 -16 10 -3 6 -2 10 4 10 5 0 13 -4 16 -10z m-257 -37 c2
-25 -1 -33 -18 -38 -26 -8 -50 10 -50 40 0 29 9 37 40 33 20 -2 26 -9 28 -35z
m-78 -138 c0 -14 -2 -25 -4 -25 -2 0 -6 11 -8 25 -3 14 -1 25 3 25 5 0 9 -11
9 -25z m87 9 c2 -6 -3 -17 -12 -24 -9 -7 -15 -9 -14 -4 4 23 -3 26 -23 8 -12
-10 -18 -14 -15 -7 4 6 3 14 -3 18 -18 11 -1 23 32 21 17 -1 33 -6 35 -12z
m32 -6 c-16 -32 -17 -32 -15 -4 0 14 7 26 14 26 10 0 10 -5 1 -22z m-309 -138
c-6 -11 -5 -21 2 -28 7 -7 8 -15 4 -19 -4 -4 -11 -1 -16 7 -7 10 -10 11 -10 3
0 -7 -4 -13 -10 -13 -5 0 -10 15 -10 34 0 29 3 34 25 34 20 0 23 -4 15 -18z
m46 3 c13 -17 13 -17 14 0 0 9 4 17 8 17 4 0 6 -16 4 -35 -5 -38 -16 -45 -27
-17 -7 16 -8 15 -15 -3 -7 -16 -9 -12 -9 18 -1 41 5 46 25 20z m95 5 c0 -10 2
-10 6 0 8 20 23 14 24 -10 l2 -23 4 23 c2 12 9 22 14 22 5 0 14 -10 19 -22 l9
-23 0 23 c1 12 6 22 12 22 7 0 9 -9 5 -22 -3 -13 -6 -29 -6 -35 0 -20 -30 -15
-31 5 -1 16 -2 16 -6 0 -7 -26 -33 -22 -33 4 l0 22 -16 -22 c-28 -41 -74 -18
-59 29 7 21 55 27 56 7z m125 -12 c-2 -14 3 -27 10 -30 10 -4 14 3 14 24 0 24
4 30 23 30 18 0 19 -2 7 -10 -13 -9 -13 -11 0 -20 12 -8 12 -10 1 -10 -11 0
-11 -3 -1 -15 11 -13 7 -15 -29 -15 -40 0 -41 1 -41 35 0 19 4 35 9 35 5 0 8
-11 7 -24z m129 7 c6 -17 7 -17 16 0 11 18 49 24 49 7 0 -6 -3 -9 -7 -9 -32 5
-47 -21 -21 -37 8 -5 9 -2 5 9 -4 11 -1 17 8 17 8 0 15 -9 15 -20 0 -23 -29
-27 -48 -8 -9 9 -15 9 -24 0 -7 -7 -20 -12 -30 -12 -14 0 -18 8 -18 35 0 30 3
35 24 35 13 0 27 -8 31 -17z m113 10 c-21 -5 -24 -23 -5 -24 9 0 9 -2 -1 -6
-10 -4 -10 -8 -1 -19 9 -11 7 -14 -10 -14 -17 0 -21 6 -21 35 0 32 3 35 28 34
16 -1 20 -3 10 -6z m-288 -118 c0 -19 -4 -35 -10 -35 -5 0 -10 16 -10 35 0 19
5 35 10 35 6 0 10 -16 10 -35z m50 24 c0 -5 -4 -7 -10 -4 -5 3 -10 1 -10 -4 0
-6 5 -11 10 -11 6 0 10 -9 10 -20 0 -13 -7 -20 -20 -20 -11 0 -20 5 -20 10 0
6 5 10 12 10 9 0 9 3 0 12 -18 18 -14 38 8 38 11 0 20 -5 20 -11z m-78 -93 c6
-8 8 -7 8 2 0 22 20 13 21 -10 l2 -23 4 23 c5 26 32 30 34 5 1 -17 2 -17 6 0
8 29 24 19 17 -10 -4 -16 -9 -31 -11 -35 -8 -15 -23 -8 -23 10 -1 16 -1 16
-11 0 -14 -25 -29 -22 -30 5 l0 22 -16 -23 c-20 -28 -47 -28 -60 0 l-9 21 -22
-23 -22 -24 0 36 0 36 53 0 c28 0 55 -5 59 -12z m201 -18 c6 -40 -1 -50 -15
-23 -11 19 -11 19 -19 0 -6 -16 -8 -13 -8 13 -1 22 -6 32 -17 32 -8 0 -12 -5
-8 -11 3 -6 0 -15 -7 -20 -11 -7 -10 -9 4 -9 9 0 17 -4 17 -10 0 -14 -38 -12
-42 2 -3 7 -2 23 0 35 4 20 10 23 47 23 41 0 43 -2 48 -32z"/>
<path d="M910 1688 c-1 -21 -2 -22 -14 -5 -28 36 -44 14 -30 -40 7 -27 24 -31
24 -6 0 15 2 15 19 -1 24 -21 30 -12 24 37 -6 40 -23 51 -23 15z"/>
<path d="M956 1688 c-13 -49 -8 -58 29 -58 29 0 36 4 41 25 8 31 -10 55 -41
55 -15 0 -25 -8 -29 -22z m44 -17 c0 -11 -4 -23 -10 -26 -6 -4 -10 5 -10 19 0
14 5 26 10 26 6 0 10 -9 10 -19z"/>
<path d="M1043 1660 c-8 -31 -7 -40 2 -40 7 0 17 18 23 40 7 30 7 40 -2 40 -7
0 -17 -18 -23 -40z"/>
<path d="M1085 1654 c-18 -45 -18 -44 0 -44 8 0 15 5 15 10 0 6 9 10 20 10 29
0 38 30 15 46 -27 20 -33 18 -50 -22z m40 6 c3 -5 1 -10 -4 -10 -6 0 -11 5
-11 10 0 6 2 10 4 10 3 0 8 -4 11 -10z"/>
<path d="M787 1673 c-7 -13 5 -83 14 -83 5 0 9 7 9 15 0 11 7 14 25 9 31 -8
31 3 0 39 -24 27 -40 34 -48 20z"/>
<path d="M1156 1625 c-19 -35 -19 -36 0 -50 31 -24 49 -14 22 13 -9 9 -7 12
12 12 23 0 23 0 4 16 -18 15 -18 15 4 9 27 -8 29 10 3 25 -26 13 -24 15 -45
-25z"/>
<path d="M711 1631 c-38 -38 12 -92 58 -62 17 11 5 51 -15 51 -17 0 -19 -26
-1 -33 6 -3 2 -6 -10 -6 -28 -1 -32 33 -7 47 11 6 13 12 6 16 -6 4 -20 -2 -31
-13z"/>
<path d="M1235 1601 c3 -10 -1 -24 -10 -31 -8 -7 -15 -19 -15 -28 0 -12 7 -9
28 10 15 14 33 23 40 21 19 -7 14 7 -10 28 -29 24 -41 24 -33 0z"/>
<path d="M913 1588 c-275 -47 -378 -397 -171 -583 64 -59 139 -87 228 -87 88
0 142 17 210 67 85 62 130 155 130 266 0 142 -84 271 -208 321 -40 16 -141 25
-189 16z m184 -54 c47 -18 106 -77 137 -134 l27 -49 -28 -14 c-15 -8 -52 -20
-81 -27 -49 -11 -55 -11 -75 8 -52 47 -119 70 -252 86 l-99 11 49 51 c84 86
212 113 322 68z m-74 -281 c-13 -2 -33 -2 -45 0 -13 2 -3 4 22 4 25 0 35 -2
23 -4z m-226 -9 c-3 -3 -12 -4 -19 -1 -8 3 -5 6 6 6 11 1 17 -2 13 -5z m303
-23 c0 -5 -9 -7 -20 -4 -11 3 -20 7 -20 9 0 2 9 4 20 4 11 0 20 -4 20 -9z
m-225 -6 c-23 -8 -83 -10 -79 -3 3 4 24 8 47 7 23 0 38 -2 32 -4z m123 -2
c-15 -2 -42 -2 -60 0 -18 2 -6 4 27 4 33 0 48 -2 33 -4z m-45 -80 c-7 -2 -19
-2 -25 0 -7 3 -2 5 12 5 14 0 19 -2 13 -5z m-43 -26 l55 -3 -62 -2 c-54 -2
-63 0 -63 16 0 11 3 13 8 5 4 -6 32 -13 62 -16z m103 -4 c-7 -2 -19 -2 -25 0
-7 3 -2 5 12 5 14 0 19 -2 13 -5z m-75 -20 c-15 -2 -42 -2 -60 0 -18 2 -6 4
27 4 33 0 48 -2 33 -4z m165 0 c-13 -2 -33 -2 -45 0 -13 2 -3 4 22 4 25 0 35
-2 23 -4z m-248 -23 c3 -6 -1 -7 -9 -4 -18 7 -21 14 -7 14 6 0 13 -4 16 -10z
m88 -7 c-13 -2 -35 -2 -50 0 -16 2 -5 4 22 4 28 0 40 -2 28 -4z m87 -3 c-12
-8 -13 -12 -2 -19 11 -6 9 -10 -7 -14 -12 -3 -21 -1 -21 4 0 5 -8 10 -17 10
-17 1 -17 2 0 6 9 2 15 9 12 14 -4 5 6 9 22 9 22 0 25 -2 13 -10z m93 3 c-13
-2 -35 -2 -50 0 -16 2 -5 4 22 4 28 0 40 -2 28 -4z"/>
<path d="M520 1375 c-7 -8 -10 -25 -6 -40 5 -20 13 -25 36 -25 36 0 56 30 40
60 -13 24 -52 26 -70 5z"/>
<path d="M1370 1376 c-6 -8 -10 -25 -8 -38 2 -18 10 -24 35 -26 28 -3 33 1 39
23 11 45 -37 75 -66 41z"/>
<path d="M553 1160 c-29 -12 -31 -34 -3 -25 14 5 20 2 20 -9 0 -9 -7 -16 -15
-16 -8 0 -15 -5 -15 -11 0 -7 13 -9 38 -5 l37 7 -27 -25 c-16 -14 -28 -28 -28
-31 0 -3 19 -2 43 2 l42 6 -30 -25 c-25 -22 -28 -28 -16 -42 7 -9 25 -16 38
-16 22 0 24 -2 13 -15 -10 -12 -10 -18 0 -30 7 -8 17 -15 22 -15 7 0 6 5 -1
13 -15 19 -1 30 17 14 13 -10 14 -8 7 13 -7 22 -6 23 8 11 15 -12 15 -16 -3
-41 -12 -16 -16 -31 -11 -35 5 -3 14 3 20 12 9 16 10 15 11 -8 0 -28 20 -42
45 -33 9 4 15 0 15 -10 0 -9 7 -16 15 -16 11 0 15 11 15 38 0 52 -9 57 -42 25
-21 -20 -28 -23 -28 -11 0 9 7 18 15 22 8 3 15 10 15 15 0 12 -69 78 -77 73
-3 -2 -14 15 -25 38 -11 22 -27 40 -35 40 -8 0 -11 5 -8 10 11 17 -5 49 -21
43 -8 -3 -14 1 -14 11 0 9 5 16 10 16 6 0 10 5 10 10 0 12 -27 12 -57 0z m107
-148 c0 -15 -22 -30 -36 -25 -11 4 -12 9 -3 19 12 15 39 19 39 6z m90 -86 c0
-3 -4 -8 -10 -11 -5 -3 -10 -1 -10 4 0 6 5 11 10 11 6 0 10 -2 10 -4z"/>
<path d="M1331 1121 c-12 -21 -11 -26 4 -37 15 -11 20 -11 31 4 12 16 13 15
14 -5 0 -13 5 -23 10 -23 6 0 10 14 10 31 0 28 -3 31 -25 27 -17 -4 -25 0 -27
11 -3 12 -7 10 -17 -8z"/>
<path d="M1291 1044 c-12 -19 -21 -41 -21 -48 0 -18 21 -36 42 -36 28 0 35 30
11 50 -15 12 -18 21 -12 31 7 11 14 8 34 -16 13 -16 24 -24 25 -17 0 17 -38
72 -50 72 -4 0 -17 -16 -29 -36z m29 -56 c0 -13 -23 -5 -28 10 -2 7 2 10 12 6
9 -3 16 -11 16 -16z"/>
<path d="M1210 948 c-5 -13 -9 -19 -9 -15 -1 4 -10 3 -22 -4 -14 -7 -19 -17
-16 -30 4 -14 0 -19 -16 -19 -18 0 -19 2 -7 10 18 11 8 23 -14 14 -22 -9 -20
-35 4 -41 23 -6 26 -19 8 -26 -7 -2 -10 -8 -6 -12 9 -10 38 13 38 29 0 8 11
11 30 8 25 -4 30 -1 30 17 0 12 6 21 13 20 40 -5 52 25 21 55 -22 22 -43 20
-54 -6z m50 -30 c0 -6 -7 -5 -15 2 -8 7 -15 17 -15 22 0 6 7 5 15 -2 8 -7 15
-17 15 -22z m-52 -34 c-10 -10 -28 6 -28 24 0 15 1 15 17 -1 9 -9 14 -19 11
-23z"/>
<path d="M822 860 c-8 -33 -7 -42 3 -47 22 -8 50 1 50 17 0 8 4 21 9 28 10 16
0 27 -30 36 -18 6 -23 1 -32 -34z"/>
<path d="M895 844 c-17 -41 -14 -54 9 -35 11 10 16 8 24 -6 16 -28 25 -8 15
33 -11 50 -29 53 -48 8z"/>
<path d="M970 873 c-12 -3 -15 -14 -12 -43 4 -34 8 -40 27 -40 28 0 48 22 43
51 -3 22 -31 38 -58 32z m38 -41 c-5 -27 -28 -26 -28 2 0 19 4 24 15 19 9 -3
15 -12 13 -21z"/>
<path d="M1067 843 c-12 -12 -7 -22 8 -17 8 4 15 10 15 15 0 11 -14 12 -23 2z"/>
<path d="M426 1642 c-5 -8 45 -52 59 -52 14 0 2 31 -17 44 -25 18 -35 20 -42
8z"/>
<path d="M856 353 c-12 -12 -6 -33 9 -33 8 0 15 6 15 14 0 17 -14 28 -24 19z"/>
<path d="M1110 335 c0 -8 5 -15 10 -15 6 0 10 7 10 15 0 8 -4 15 -10 15 -5 0
-10 -7 -10 -15z"/>
<path d="M900 161 c0 -12 6 -21 16 -21 9 0 14 7 12 17 -5 25 -28 28 -28 4z"/>
</g>
</svg>
